<svg id="图层_1" data-name="图层 1" xmlns="http://www.w3.org/2000/svg" viewBox="0 0 921.02 208.4"><defs><style>.cls-1{fill:#fff;}</style></defs><path class="cls-1" d="M-1077.18,940a22.15,22.15,0,0,0-5.17-8.84,21,21,0,0,0-9.23-4.9,49.9,49.9,0,0,0-12.57-1.42h-50.77a4.14,4.14,0,0,0-4.21,4.33v74.4a4.08,4.08,0,0,0,4.21,4.21h8.13a4.13,4.13,0,0,0,4.33-4.21V975.76h38.31c23.72,0,28.7-12.63,28.7-23.24A40.86,40.86,0,0,0-1077.18,940Zm-65.28,1.14h38a40.5,40.5,0,0,1,6,.38,14.81,14.81,0,0,1,3.58,1,4.61,4.61,0,0,1,2.12,2,8.9,8.9,0,0,1,.76,3.93v3.76a9.55,9.55,0,0,1-.79,4.12,4,4,0,0,1-1.3,1.57l-.67.3c-1.32.6-4.1,1.31-9.74,1.31h-38Z" transform="translate(1159.13 -900)"/><path class="cls-1" d="M-984.59,924.81h-7.75a4.07,4.07,0,0,0-4.09,4.33V957h-56.63V929.14a4.13,4.13,0,0,0-4.22-4.33h-7.64a4.13,4.13,0,0,0-4.21,4.33v74.4a4.07,4.07,0,0,0,4.21,4.21h7.64a4.07,4.07,0,0,0,4.22-4.21v-30.2h56.63v30.2a4,4,0,0,0,4.09,4.21h7.75a4,4,0,0,0,4.1-4.21v-74.4A4.07,4.07,0,0,0-984.59,924.81Z" transform="translate(1159.13 -900)"/><path class="cls-1" d="M-884.28,924.81h-10.78a4.19,4.19,0,0,0-3.09,1.17l-28.54,29.22-28.36-29a3.49,3.49,0,0,0-2.78-1.36h-10.9a4.19,4.19,0,0,0-4.34,4.33v.36a3.47,3.47,0,0,0,1.33,2.75l36.84,37.66v33.63a4,4,0,0,0,4.09,4.21h8.24a4.07,4.07,0,0,0,4.21-4.21V969.91l36.84-37.66a3.5,3.5,0,0,0,1.33-2.75v-.36A4.07,4.07,0,0,0-884.28,924.81Z" transform="translate(1159.13 -900)"/><path class="cls-1" d="M-791.41,924.81h-78.87a4.19,4.19,0,0,0-4.33,4.33v7.63a4.15,4.15,0,0,0,4.33,4.34h31.41v62.43a4,4,0,0,0,4.09,4.21h7.64a4.08,4.08,0,0,0,4.21-4.21V941.11h31.52a4.19,4.19,0,0,0,4.34-4.34v-7.63A4.19,4.19,0,0,0-791.41,924.81Z" transform="translate(1159.13 -900)"/><path class="cls-1" d="M-767.82,924.81h-5.94a4.07,4.07,0,0,0-4.1,4.33v74.4a4,4,0,0,0,4.1,4.21h5.94a4,4,0,0,0,4-4.21v-74.4A4,4,0,0,0-767.82,924.81Z" transform="translate(1159.13 -900)"/><path class="cls-1" d="M-664.73,924.81h-7.51a4.14,4.14,0,0,0-4.33,4.33v40.35c0,4.08-.14,7.59-.41,10.41a16.53,16.53,0,0,1-1.43,5.84l-.15.34c-.53,1.41-1.66,3.37-5.48,4.25-2,.51-6.63,1.12-17.52,1.12h-11.39c-10.9,0-15.54-.61-17.66-1.15a7.36,7.36,0,0,1-5.77-4.37c-.93-2.15-2-6.75-2-16.44V929.14a4.14,4.14,0,0,0-4.22-4.33h-7.63a4.07,4.07,0,0,0-4.09,4.33v40.35a102.37,102.37,0,0,0,.81,13.75,35.3,35.3,0,0,0,2.79,10.29,23.05,23.05,0,0,0,5.46,7.14,22.49,22.49,0,0,0,7.74,4.3l.51.48h.87a53.54,53.54,0,0,0,9.26,1.66,131.84,131.84,0,0,0,14,.64h11.39a131.37,131.37,0,0,0,14-.64,48.6,48.6,0,0,0,9.23-1.69l2.71-.1v-.9a20.71,20.71,0,0,0,11.6-11c2.38-5.31,3.54-13.13,3.54-23.94V929.14A4.13,4.13,0,0,0-664.73,924.81Z" transform="translate(1159.13 -900)"/><path class="cls-1" d="M-540.78,924.81h-16.47a4.13,4.13,0,0,0-3.06,1.15l-34.34,58.47L-628,925.67l-.87-.43a4.65,4.65,0,0,0-2-.43h-17.45a4.13,4.13,0,0,0-4.21,4.33v74.4a4.07,4.07,0,0,0,4.21,4.21h7.87a4.07,4.07,0,0,0,4.22-4.21V944l35.94,62.88.84.42a4,4,0,0,0,1.9.47h5.2a4.2,4.2,0,0,0,3.07-1.17l36.46-62.87v59.83a4.08,4.08,0,0,0,4.22,4.21h7.75a4,4,0,0,0,4-4.21v-74.4A4,4,0,0,0-540.78,924.81Z" transform="translate(1159.13 -900)"/><path class="cls-1" d="M-394.13,973.05l13.16,4.63c-3.36,6.76-4.49,11-8.12,15.92-3.33,4.5-8.27,9.24-15.13,11.24-8.07,2.35-20.62,1-28-3.93-12.69-8.52-20.31-22.34-20.95-47.89-.17-8.72-.11-20.16,0-32.89h-52.69V906.86h69.25c-.32,9.21.1,16.43.1,25.6,14.39-9.64,24.4-14.57,31.49-19.66l10.57,10.42c-6.32,3.89-13.71,8.4-30.17,18.53,12.9,5.08,23.19,7.94,35,13.21l-9.88,12.28c-10.81-5.16-23.38-10.06-37-16.16,0,25.27,6.37,38.17,21.05,41,7.88,1.54,12.71-2.44,15.86-7.07A37.24,37.24,0,0,0-394.13,973.05Z" transform="translate(1159.13 -900)"/><path class="cls-1" d="M-354.79,904.81h37.06v87.58c0,6.36-6.11,11-13.55,11-5.19,0-8.78-.26-11.1-.47a81.83,81.83,0,0,0-1.73-8.8,78.54,78.54,0,0,0,9.6.67c3.28,0,4.38-.5,4.38-3.35V968.09h-12.59l.05.88c0,15.45-2.76,27.39-9.32,35.28-1.76-2-7-5.64-9.61-7.5,5.36-7,6.81-17.06,6.81-30.09Zm24.66,10.12-12.54,0-.05,16.31,12.59.06Zm-12.59,43.62h12.59V941.73l-12.54,0Zm51.36,2.47-1.49,7.07h18.2l1.48-9.08-28.58,0,0-2.2a103.52,103.52,0,0,1-10.59,7.31c-1.91-2.08-5-5.33-7-7.12,9.28-5,14.16-8.38,19.16-13.69h-15.42v-8.91h22.47c1.55-2.41.81-1.17,2-4.11h-21.12V921.5h24.49c1.58-5.74,2.4-14.08,2.72-21.5l11.26.07a129.53,129.53,0,0,1-3,21.43l32.26-.07.08,8.88h-34.65a15.11,15.11,0,0,1-1.77,4.11h39.39v8.91h-17.14c6.05,6.76,9.53,8.7,20.56,11.3a94.28,94.28,0,0,0-6.12,7.8,55.1,55.1,0,0,1-16.91-8.6l-2.41,14.35,16.54-.09c-.65,9.08-1.42,17.84-1.82,22.42-.49,8.37-6.13,12.51-15.65,12.51-4.71,0-9.63.09-15.3-.13-.47-2.2-1.59-7-2.14-9.74,5.82.49,10.66.91,15.37.91,4.88,0,6.44-.79,6.83-5.23.4-4,.5-7,.81-12.08H-306l3.72-15.73Zm-24.27,19.83h51.69v8.53h-51.69Zm4.53-72.38,9.75-5.39c3.07,3.66,6.54,8.23,10,12.6l-9.3,5.41A137.7,137.7,0,0,0-311.1,908.47Zm19,41.66h26.34c-3.45-2.93-3.51-3-6.06-6.8h-14.06C-288.39,946.73-288.09,946.82-292.09,950.13Zm22.24-34.6c4.16-4.29,9.17-8.9,12.24-12.32l8.56,5.45c-4.3,4.63-8.75,9.21-12.18,12.53Z" transform="translate(1159.13 -900)"/><path class="cls-1" d="M-1084.48,1089.55a39.23,39.23,0,0,1-6.57,11.77,47.93,47.93,0,0,0-5-3.64,25.91,25.91,0,0,0,5.59-9.62Zm8.51-3.25v13.91c0,3.12-.52,4.75-2.47,5.85s-4.55,1.11-8,1.11a23.94,23.94,0,0,0-2.08-6.31c2,.07,4,.07,4.68.07s.91-.2.91-.91V1086.3h-12v-6.5h12v-5h-12.35v-6.37h6.37a29.56,29.56,0,0,0-1.95-6.76l5.33-1.3h-8.78v-6.31h11.12c-.59-1.75-1.3-3.57-2-5.13l6.89-1.63a67.77,67.77,0,0,1,2.79,6.76h10.27v6.31h-8.19l5.33,1c-1,2.47-2,5-2.92,7h6.76v6.37H-1076v5h10.73v6.5Zm-8.64-25.93a26.15,26.15,0,0,1,2.21,7.21l-3.12.85h7.67a75.36,75.36,0,0,0,2.79-8.06Zm49.4,15.79h-6v31.92h-7.54v-31.92h-6.38v.46c0,9.55-.84,22.81-6.43,30.94a29,29,0,0,0-5.92-4.62,21.7,21.7,0,0,0,2.86-6.24l-5.13,3.25a74.53,74.53,0,0,0-5.07-9.75l5.07-2.79a77.85,77.85,0,0,1,5.2,9.16c2-6.37,2.21-13.71,2.21-20V1053.8c7.15-1.3,15-3.31,19.69-5.52l6,5.65a107.77,107.77,0,0,1-18.47,4.88V1069h20Z" transform="translate(1159.13 -900)"/><path class="cls-1" d="M-975.6,1084.48a38,38,0,0,0,12.67,7.54,28.07,28.07,0,0,0-5.13,6,41.58,41.58,0,0,1-10.21-6.82V1096H-990.1v4.22h21.26v6.37h-49.54v-6.37H-998V1096h-11.5v-4a43.24,43.24,0,0,1-10.34,6.63,30.29,30.29,0,0,0-4.94-5.92,39,39,0,0,0,13.13-8.19h-12.48v-6.3h12.35v-19.37h-9v-6.24h9v-4.88h7.74v4.88h20.34v-4.88h7.93v4.88h8.91v6.24h-8.91v19.37h12v6.3Zm-4.1,5.4a39.36,39.36,0,0,1-4.68-5.4h-18.33a39.56,39.56,0,0,1-4.62,5.4H-998v-4h7.87v4Zm-24.31-31.07v2.86h20.34v-2.86Zm0,11h20.34V1067H-1004Zm0,8.32h20.34v-2.93H-1004Z" transform="translate(1159.13 -900)"/><path class="cls-1" d="M-932.25,1070.44c-.85,9.49-2.54,17.29-5,23.47,5.92,5.13,14,6.24,23.53,6.3,3.77,0,17.23,0,21.65-.19a25.3,25.3,0,0,0-2.73,7.08h-19.11c-10.92,0-19.76-1.36-26.46-6.89a26.92,26.92,0,0,1-7.28,8.19,23,23,0,0,0-5.52-5.07,25.12,25.12,0,0,0,7.8-8.64,44.66,44.66,0,0,1-5.79-12.61l5.66-1.95a37.94,37.94,0,0,0,3.18,7.6,62.69,62.69,0,0,0,2.54-11.37h-5.66c-1.49.78-3.44,2-3.44,2.86a39.65,39.65,0,0,0-3-5.92c1.3-.32,3.12-2.14,4.48-4.35a82,82,0,0,0,5.79-11h-9.56v-6.7h12l2.6-1,4.61,3.19a140.67,140.67,0,0,1-8.19,16.25h2.28l1.3-.13Zm13.52-12.15h-10.92v-5.85h10.92v-4.75h7.28v4.75h14.37v9h3.57v5.72h-3.57v9h-14.37v3.19h15.15v5.46h-15.15V1088h17.23v5.92h-17.23v4.42h-7.28v-4.42H-933V1088h14.24v-3.18h-11.64v-5.46h11.64v-3.19H-930v-5.78h11.25v-3.25h-14.5v-5.72h14.5Zm7.28,0v3.12h7.6v-3.12Zm7.6,8.84h-7.6v3.25h7.6Z" transform="translate(1159.13 -900)"/><path class="cls-1" d="M-846.91,1077.85v7.48h15.47v6.76h-15.47v7.8h23.8v6.89h-55.26v-6.89H-855v-7.8h-14.82v-6.76H-855v-7.48h-15.73v-4.35a58.22,58.22,0,0,1-6.24,3.31,29.4,29.4,0,0,0-5.27-6.43c11.64-4.81,23.47-13.26,30-23.34l6.89,3.19-1.17,1.75c7.73,8.26,16.7,14,27.11,18.53a22.62,22.62,0,0,0-5.2,6.63c-2.15-1.11-4.29-2.28-6.25-3.45v4.16Zm11.83-6.82A85.78,85.78,0,0,1-851,1057.51,84.64,84.64,0,0,1-866.8,1071Z" transform="translate(1159.13 -900)"/><path class="cls-1" d="M-752.2,1050.16v58.18h-8.26v-3.25h-38.48v3.25h-7.86v-58.18Zm-8.26,47.78v-40.69h-38.48v40.69Zm-2.27-10.08v6.31H-796.4v-6.31h13.06v-7.67h-10.72v-6.5h10.72v-6.11h-12.35v-6.76h31.92v6.76h-12.42v6.11h11v6.5h-3.58a49.76,49.76,0,0,1,4.88,5.79l-3.38,1.88Zm-13.46,0h6.5a48.77,48.77,0,0,0-4.42-5.65l4-2h-6.05Z" transform="translate(1159.13 -900)"/><path class="cls-1" d="M-713.92,1099.89c0,3.57-.52,5.65-2.66,7s-4.81,1.43-9,1.43a25.9,25.9,0,0,0-2.08-7.48c2.34.13,4.75.07,5.53.07s1.1-.26,1.1-1.17v-12.87h-6.82c-.59,7.6-1.89,15.6-4.55,21.51a28.52,28.52,0,0,0-6.24-3.51c4-8.84,4.29-21.9,4.29-31.39v-23.6h20.47Zm-7.15-20.28v-7.87h-6.37v1.76c0,2,0,4-.06,6.11Zm-6.37-22.56v7.54h6.37v-7.54Zm49,16.71a59.56,59.56,0,0,1-7.81,21.77,31,31,0,0,0,9.63,6.83,31.59,31.59,0,0,0-4.82,6,40.79,40.79,0,0,1-9.23-7.08,36.54,36.54,0,0,1-8.51,7,25,25,0,0,0-3.84-5.2v5.33h-7.34V1050h29.9v12.54c0,3.38-.71,5.2-3.44,6.24-2.54,1-6.25,1-11.19,1a26.31,26.31,0,0,0-2.27-6.5c3.25.19,7.09.19,8.13.13s1.36-.26,1.36-1v-5.2H-703v15.4h18.79l1.17-.26ZM-703,1102.23a30.29,30.29,0,0,0,7.93-6.63,66,66,0,0,1-7.54-16.12H-703Zm7-22.75a51.13,51.13,0,0,0,5,10.14,45.48,45.48,0,0,0,4.23-10.14Z" transform="translate(1159.13 -900)"/><path class="cls-1" d="M-610.5,1056.6c-3.9,5.65-9.49,10.07-16.19,13.52a122.84,122.84,0,0,0,20.74,2.47,32.18,32.18,0,0,0-4.29,6.76c-10-.72-18.79-2.28-26.13-5a131.61,131.61,0,0,1-26.65,5.79,27.09,27.09,0,0,0-3-6.76,124.2,124.2,0,0,0,20.67-3.38,34.27,34.27,0,0,1-6.83-5.4,57,57,0,0,1-7.34,4.49,24.34,24.34,0,0,0-4.49-6c9.17-4.16,15.21-10,18.53-15.54l7.86,1.63a51.19,51.19,0,0,1-3.18,4.61h24.31l1.1-.32Zm-.78,27s-.19,2.08-.39,3.12c-1.43,11-3.06,16.25-5.46,18.33-1.89,1.75-4,2.27-6.89,2.4-2.41.13-6.57.13-10.86-.06a14.4,14.4,0,0,0-2.4-6.63c4.22.39,8.9.45,10.85.45a4.65,4.65,0,0,0,3.12-.71c1.3-1,2.54-4.23,3.52-10.34h-17.36c-4.42,9.49-12.09,14.76-23.86,18a33.12,33.12,0,0,0-4.48-6.37c9.49-1.95,16-5.46,19.82-11.64H-661.2v-6.56h18.39c.39-1.76.78-3.51,1-5.53l8,.65a48.79,48.79,0,0,1-1.11,4.88Zm-35.88-23a29.88,29.88,0,0,0,10.72,6.69,48.74,48.74,0,0,0,13.33-7.08h-23.6Z" transform="translate(1159.13 -900)"/><path class="cls-1" d="M-573.65,1050.1a109,109,0,0,1-6,12.8v45.31H-587v-34A74,74,0,0,1-592,1080a50.78,50.78,0,0,0-4.16-7.93c6-5.85,12-15.08,15.34-24.31Zm25.61,35.55a48.87,48.87,0,0,0,14.89,14.17,33.09,33.09,0,0,0-5.46,6.18,53.93,53.93,0,0,1-13.2-14.43v16.77h-7.8v-16.45a52.08,52.08,0,0,1-14,14,31.78,31.78,0,0,0-5.33-6.18,46.66,46.66,0,0,0,15.67-14h-13.33v-7h17v-5.85h-12.74v-22.36h34.13v22.36h-13.59v5.85H-535v7ZM-565,1066h19v-8.71h-19Z" transform="translate(1159.13 -900)"/><path class="cls-1" d="M-500.78,1052.76c-1.76,5.46-4,12-5.85,17a21.06,21.06,0,0,1,4.94,13.52c0,4.22-.91,7-3,8.58a7.62,7.62,0,0,1-3.71,1.43,30.44,30.44,0,0,1-4.29.19,15.92,15.92,0,0,0-1.69-6.69,10.78,10.78,0,0,0,2.86.06,2.86,2.86,0,0,0,1.82-.52c.85-.58,1.17-2,1.17-3.83a18,18,0,0,0-4.68-11.9c1.3-4,2.73-9.29,3.77-13.52h-5.78v51.16H-522v-58h15l1.11-.26Zm9.36,5.27h-8.52v-6h13.33c-.33-1.11-.65-2.28-1-3.25l7-1.63c.58,1.5,1.3,3.32,1.75,4.88h13.33v6h-10.34l6,1c-.59,1.17-1.18,2.27-1.69,3.25h7.93v6h-38.62v-6h8.58a24.42,24.42,0,0,0-1.17-3.38ZM-463.6,1100h-15v8.39h-7.6V1100h-15.86v-6.3h15.86v-3.12h-12.35V1071h31.65v19.5h-11.7v3.12h15Zm-27.82-21.32h17.09v-2.79h-17.09Zm0,7.09h17.09v-2.86h-17.09Zm12.48-23.4a33.87,33.87,0,0,0,1.49-4.29H-488a29,29,0,0,1,1.62,4.29Z" transform="translate(1159.13 -900)"/><path class="cls-1" d="M-392.36,1086.82h-25.55v21.52H-426v-21.52h-25.28V1079H-426v-19.69h-21.9v-7.67h51.74v7.67h-21.78V1079h25.55Zm-44.46-25.41c2.14,4.16,4.48,9.62,5.2,13.26l-7.54,2.34a63.85,63.85,0,0,0-4.75-13.52Zm24.11,13.52a77.31,77.31,0,0,0,5.66-13.72l8.26,2.08a116.37,116.37,0,0,1-7.16,13.59Z" transform="translate(1159.13 -900)"/><path class="cls-1" d="M-339.06,1053.61c6,5.59,13.72,13.58,17.1,19l-6.57,4.75a56.86,56.86,0,0,0-3.38-4.94c-34.52,1.69-39.13,1.82-42.58,3A58.82,58.82,0,0,0-377,1068c1.69-.46,3.25-1.69,5.39-3.77a86.7,86.7,0,0,0,13.78-17.68l7.8,3.31a106.62,106.62,0,0,1-14.17,16.58l26.65-.85c-2.53-2.86-5.13-5.59-7.54-8Zm-33.28,26.13h43.81v28.47h-8.32V1105h-27.56v3.31h-7.93Zm7.93,7.41v10.4h27.56v-10.4Z" transform="translate(1159.13 -900)"/></svg>